<mxfile host="app.diagrams.net" modified="2024-02-20T18:07:53.168Z" agent="Mozilla/5.0 (X11; Linux x86_64; rv:122.0) Gecko/20100101 Firefox/122.0" version="23.1.5" etag="f0CrYq9smxUkZfc9boK2" type="github">
  <diagram name="PÃ¡gina-1" id="npcJa7f_WvdTFaMoOCRP">
    <mxGraphModel>
      <root>
        <mxCell id="0" />
        <mxCell id="1" parent="0" />
      </root>
    </mxGraphModel>
  </diagram>
</mxfile>
